<svg t="1595838054275" class="icon" viewBox="0 0 1024 1024" version="1.1" xmlns="http://www.w3.org/2000/svg" p-id="4071" width="200" height="200"><path d="M511.845 579.637c-60.191 0-116.781-23.44-159.343-66.002-42.562-42.562-66.002-99.151-66.002-159.343s23.44-116.78 66.002-159.343c42.562-42.562 99.152-66.002 159.343-66.002 60.191 0 116.781 23.44 159.343 66.002 42.562 42.562 66.002 99.151 66.002 159.343s-23.44 116.78-66.002 159.343c-42.56 42.563-99.15 66.002-159.343 66.002z m0-403.617c-98.3 0-178.273 79.972-178.273 178.273 0 98.3 79.973 178.272 178.273 178.272s178.273-79.972 178.273-178.272S610.145 176.02 511.845 176.02z" p-id="4072"></path><path d="M855.698 876.994h-47.072c0-78.935-30.74-153.144-86.554-208.96-55.815-55.813-130.024-86.553-208.959-86.553-78.933 0-153.144 30.74-208.959 86.554-55.814 55.815-86.553 130.024-86.553 208.959h-47.072c0-46.24 9.06-91.106 26.931-133.356 17.256-40.798 41.955-77.433 73.41-108.887s68.089-56.153 108.886-73.41c42.251-17.87 87.118-26.93 133.356-26.93 46.24 0 91.106 9.06 133.357 26.93 40.797 17.257 77.432 41.955 108.887 73.41s56.152 68.09 73.408 108.887c17.872 42.25 26.934 87.117 26.934 133.356z" p-id="4073"></path></svg>
